<svg width="100" height="100" viewBox="0 0 353 392" fill="none" xmlns="http://www.w3.org/2000/svg">
<path d="M208.56 252.4C202.4 254.013 196.9 254.82 192.06 254.82C187.367 254.82 183.187 254.527 179.52 253.94C175.853 253.353 171.893 252.18 167.64 250.42C163.533 248.807 159.647 246.9 155.98 244.7C152.313 242.5 148.647 239.787 144.98 236.56C138.233 231.133 132.073 225.267 126.5 218.96C121.073 212.653 110.513 200.847 94.82 183.54C79.1267 166.087 68.7133 154.5 63.58 148.78C58.4467 143.06 54.4867 140.053 51.7 139.76V137.56C60.2067 137.56 65.8533 137.413 68.64 137.12C71.5733 136.68 74.6533 136.02 77.88 135.14C81.1067 134.113 83.82 132.793 86.02 131.18C94.6733 125.607 99 116.367 99 103.46C99 92.7533 96.58 84.1733 91.74 77.72C87.0467 71.2667 80.3733 67.9667 71.72 67.82H44.44V198.94C44.44 202.607 45.76 205.833 48.4 208.62C51.1867 211.407 54.56 212.8 58.52 212.8H61.16L61.38 215H13.2V212.8H16.06C19.7267 212.8 22.9533 211.48 25.74 208.84C28.5267 206.2 29.9933 202.973 30.14 199.16V77.06C29.9933 73.2467 28.5267 70.02 25.74 67.38C23.1 64.5933 19.8733 63.2 16.06 63.2H13.2V61H72.6C85.5067 61 95.8467 64.6667 103.62 72C111.54 79.1867 115.5 88.7933 115.5 100.82C115.5 112.7 111.907 122.967 104.72 131.62C97.5333 140.127 88.7333 144.38 78.32 144.38C78.32 144.38 78.2467 144.38 78.1 144.38C83.0867 149.66 88.7333 155.82 95.04 162.86C120.413 190.873 136.693 208.473 143.88 215.66C151.067 222.847 157.373 228.713 162.8 233.26C168.373 237.953 173.287 241.4 177.54 243.6C186.193 248.293 194.773 250.64 203.28 250.64C205.04 250.64 206.8 250.493 208.56 250.2V252.4Z" fill="#fff"/>
<path d="M170.18 148.52C179.713 144.56 188.88 142.58 197.68 142.58C205.013 142.58 212.567 145.293 220.34 150.72C224.593 153.653 229.36 159.373 234.64 167.88C238.16 173.747 242.633 184.38 248.06 199.78L274.9 275.9C281.06 292.913 287.293 306.407 293.6 316.38C300.053 326.5 305.92 334.053 311.2 339.04C316.48 344.173 321.98 347.767 327.7 349.82C333.42 351.873 338.113 352.9 341.78 352.9C345.593 352.9 348.967 352.607 351.9 352.02L352.12 354.22C345.08 356.567 338.187 357.74 331.44 357.74C324.693 357.74 317.947 355.98 311.2 352.46C304.453 349.087 298.147 344.32 292.28 338.16C279.667 325.4 268.96 305.967 260.16 279.86L251.58 254.78H191.3L176.12 293.94C175.387 295.7 175.02 297.46 175.02 299.22C175.02 300.98 175.753 302.887 177.22 304.94C178.833 306.847 181.253 307.8 184.48 307.8H186.24V310H142.02V307.8H144C147.52 307.8 150.967 306.773 154.34 304.72C157.713 302.52 160.5 299.293 162.7 295.04L217.26 164.36C209.34 153.067 199.513 147.42 187.78 147.42C182.5 147.42 176.853 148.52 170.84 150.72L170.18 148.52ZM193.72 248.18H249.38L232 196.92C228.627 187.093 225.547 179.393 222.76 173.82L193.72 248.18Z" fill="#fff"/>
</svg>
